<?xml version="1.0" encoding="utf-8"?>
<!-- Generator: Adobe Illustrator 18.1.0, SVG Export Plug-In . SVG Version: 6.00 Build 0)  -->
<svg version="1.1" xmlns="http://www.w3.org/2000/svg" xmlns:xlink="http://www.w3.org/1999/xlink" x="0px" y="0px"
	 viewBox="0 0 288 288" enable-background="new 0 0 288 288" xml:space="preserve">
<g id="Layer_2">
	<rect x="513.6" y="1602" display="none" fill="#5D5E5E" width="551.6" height="555.5"/>
	<path display="none" fill="#391C0F" d="M373.5,1741.3h-358c-6.6,0-12,5.4-12,12v358c0,6.6,5.4,12,12,12h324.2l-77.1-58.5
		l-81.3-61.7v-0.2l-27.3-20.7v-40.7l81.2,61.6l149.2,113.2c0.7-1.5,1.1-3.2,1.1-5v-358C385.5,1746.7,380.1,1741.3,373.5,1741.3z
		 M103.7,2043l-6.1-4.6v-230.1h6.1V2043z M139.1,2067.6l-28.7-21.8v-237.5h28.7V2067.6z M331.3,2050.5v16l-175.7-133.1v-2.1
		c-0.2-0.1-0.4-0.2-0.6-0.3c63.7-1.9,116.2-23.7,131.1-52.7c0.1,0.1,0.1,0.2,0.2,0.3c0.1-0.4,0.2-0.8,0.3-1.2
		c2.5-5.1,3.8-10.4,3.8-15.9c0-38.5-64.8-69.7-144.7-69.7c-10.9,0-21.1-0.9-31.3,0.2c-5.9,0.6-11.7,1.3-17.4,2.1l-10.2-7.7
		c8.6-2.5,17.7-4.7,27-6.5l0,0l0.1,0c9-1.7,18.3-3.1,27.9-4.1c42.4-4.2,81.9,0.4,112.5,11.3c45.4,14.9,77,47.5,77,85.4
		c0,47.1-48.8,86.1-112.4,92.9L331.3,2050.5z"/>
	<path display="none" fill="#152429" d="M513.6,1602v554.2h554.2V1602H513.6z M726.5,2115l-48.9-37.1v-404.6h48.9V2115z
		 M1053.9,2086v27.2l-299.3-226.7v-3.6c-0.4-0.2-0.7-0.4-1.1-0.6c108.5-3.3,197.9-40.4,223.3-89.7c0.1,0.2,0.2,0.3,0.4,0.5
		c0.2-0.7,0.3-1.4,0.5-2.1c4.2-8.7,6.5-17.8,6.5-27.1c0-65.5-110.3-118.7-246.5-118.7c-18.6,0-35.9-1.5-53.3,0.4
		c-10,1-19.9,2.2-29.6,3.7l-17.3-13.1c14.7-4.3,30.1-8.1,46-11.1l0,0l0.2,0c15.4-2.9,31.2-5.3,47.5-6.9
		c72.2-7.2,139.5,0.6,191.6,19.3c77.4,25.4,131.1,80.9,131.1,145.5c0,80.2-83.1,146.6-191.4,158.2L1053.9,2086z"/>
	<polygon display="none" fill="#FFFFFF" points="806.4,2027.6 944.8,2132.6 1036.7,2132.6 759.9,1922.7 759.9,1991.9 806.4,2027.2 	
		"/>
	<polygon display="none" fill="#F5F2F9" points="666.2,2073.2 666.2,1673.4 655.8,1673.4 655.8,2065.3 	"/>
	<polygon display="none" fill="#FFFFFF" points="837.2,2051.1 975.6,2156.2 1067.4,2156.2 790.7,1946.2 790.7,2015.5 837.2,2050.7 	
		"/>
	<g>
		<path fill="#FFFFFF" d="M217.4,96c0-27.1-22.6-50.5-55.1-61.2c-21.9-7.9-50.2-11.1-80.6-8.1c-6.8,0.7-13.5,1.7-20,2.9l-0.1,0l0,0
			C55,31,48.5,32.6,42.3,34.4l7.3,5.5c4.1-0.6,8.2-1.1,12.4-1.5c7.3-0.8,14.6-0.2,22.4-0.2c57.2,0,103.6,22.3,103.6,49.9
			c0,3.9-0.9,7.7-2.7,11.4c-0.1,0.3-0.1,0.6-0.2,0.9c0-0.1-0.1-0.1-0.2-0.2c-10.7,20.7-48.3,36.3-93.9,37.7c0.2,0.1,0.3,0.2,0.5,0.2
			v1.5L217.4,235v-11.4l-80.5-61C182.5,157.7,217.4,129.8,217.4,96z"/>
		<polygon fill="#FFFFFF" points="59.2,220.1 79.8,235.7 79.8,50 59.2,50 		"/>
	</g>
	<polyline fill="#FFFFFF" points="264.6,279.5 148.2,191.2 148.2,191.2 90,147.1 90,176.2 109.6,191 109.6,191.2 167.8,235.4 
		167.8,235.4 226,279.5 264.6,279.5 	"/>
	<polygon fill="#FFFFFF" points="54,218.3 54,50.2 49.7,50.2 49.7,215 	"/>
</g>
<g id="Layer_1" display="none">
	<g display="inline" opacity="0.16">
	</g>
	
		<rect display="inline" opacity="0.16" fill="none" stroke="#000000" stroke-width="0.5" stroke-miterlimit="10" width="57.6" height="57.6"/>
	
		<rect x="57.6" display="inline" opacity="0.16" fill="none" stroke="#000000" stroke-width="0.5" stroke-miterlimit="10" width="57.6" height="57.6"/>
	
		<rect x="115.2" display="inline" opacity="0.16" fill="none" stroke="#000000" stroke-width="0.5" stroke-miterlimit="10" width="57.6" height="57.6"/>
	
		<rect x="172.8" display="inline" opacity="0.16" fill="none" stroke="#000000" stroke-width="0.5" stroke-miterlimit="10" width="57.6" height="57.6"/>
	
		<rect x="230.4" display="inline" opacity="0.16" fill="none" stroke="#000000" stroke-width="0.5" stroke-miterlimit="10" width="57.6" height="57.6"/>
	
		<rect y="57.6" display="inline" opacity="0.16" fill="none" stroke="#000000" stroke-width="0.5" stroke-miterlimit="10" width="57.6" height="57.6"/>
	
		<rect x="57.6" y="57.6" display="inline" opacity="0.16" fill="none" stroke="#000000" stroke-width="0.5" stroke-miterlimit="10" width="57.6" height="57.6"/>
	
		<rect x="115.2" y="57.6" display="inline" opacity="0.16" fill="none" stroke="#000000" stroke-width="0.5" stroke-miterlimit="10" width="57.6" height="57.6"/>
	
		<rect x="172.8" y="57.6" display="inline" opacity="0.16" fill="none" stroke="#000000" stroke-width="0.5" stroke-miterlimit="10" width="57.6" height="57.6"/>
	
		<rect x="230.4" y="57.6" display="inline" opacity="0.16" fill="none" stroke="#000000" stroke-width="0.5" stroke-miterlimit="10" width="57.6" height="57.6"/>
	
		<rect y="115.2" display="inline" opacity="0.16" fill="none" stroke="#000000" stroke-width="0.5" stroke-miterlimit="10" width="57.6" height="57.6"/>
	
		<rect x="57.6" y="115.2" display="inline" opacity="0.16" fill="none" stroke="#000000" stroke-width="0.5" stroke-miterlimit="10" width="57.6" height="57.6"/>
	
		<rect x="115.2" y="115.2" display="inline" opacity="0.16" fill="none" stroke="#000000" stroke-width="0.5" stroke-miterlimit="10" width="57.6" height="57.6"/>
	
		<rect x="172.8" y="115.2" display="inline" opacity="0.16" fill="none" stroke="#000000" stroke-width="0.5" stroke-miterlimit="10" width="57.6" height="57.6"/>
	
		<rect x="230.4" y="115.2" display="inline" opacity="0.16" fill="none" stroke="#000000" stroke-width="0.5" stroke-miterlimit="10" width="57.6" height="57.6"/>
	
		<rect y="172.8" display="inline" opacity="0.16" fill="none" stroke="#000000" stroke-width="0.5" stroke-miterlimit="10" width="57.6" height="57.6"/>
	
		<rect x="57.6" y="172.8" display="inline" opacity="0.16" fill="none" stroke="#000000" stroke-width="0.5" stroke-miterlimit="10" width="57.6" height="57.6"/>
	
		<rect x="115.2" y="172.8" display="inline" opacity="0.16" fill="none" stroke="#000000" stroke-width="0.5" stroke-miterlimit="10" width="57.6" height="57.6"/>
	
		<rect x="172.8" y="172.8" display="inline" opacity="0.16" fill="none" stroke="#000000" stroke-width="0.5" stroke-miterlimit="10" width="57.6" height="57.6"/>
	
		<rect x="230.4" y="172.8" display="inline" opacity="0.16" fill="none" stroke="#000000" stroke-width="0.5" stroke-miterlimit="10" width="57.6" height="57.6"/>
	
		<rect y="230.4" display="inline" opacity="0.16" fill="none" stroke="#000000" stroke-width="0.5" stroke-miterlimit="10" width="57.6" height="57.6"/>
	
		<rect x="57.6" y="230.4" display="inline" opacity="0.16" fill="none" stroke="#000000" stroke-width="0.5" stroke-miterlimit="10" width="57.6" height="57.6"/>
	
		<rect x="115.2" y="230.4" display="inline" opacity="0.16" fill="none" stroke="#000000" stroke-width="0.5" stroke-miterlimit="10" width="57.6" height="57.6"/>
	
		<rect x="172.8" y="230.4" display="inline" opacity="0.16" fill="none" stroke="#000000" stroke-width="0.5" stroke-miterlimit="10" width="57.6" height="57.6"/>
	
		<rect x="230.4" y="230.4" display="inline" opacity="0.16" fill="none" stroke="#000000" stroke-width="0.5" stroke-miterlimit="10" width="57.6" height="57.6"/>
</g>
</svg>
